<svg width="768" height="1024" viewBox="0 0 768 1024" fill="none" xmlns="http://www.w3.org/2000/svg">
<rect x="505" y="112.593" width="100" height="100" rx="12" transform="rotate(-8.51021 505 112.593)" fill="#8CD792" fill-opacity="0.45"/>
<rect x="613.03" width="200" height="200" rx="12" transform="rotate(8.57599 613.03 0)" fill="#74C74D" fill-opacity="0.45"/>
<rect x="287.643" y="387.414" width="200" height="200" rx="12" transform="rotate(-10.3632 287.643 387.414)" fill="#C7FFAD" fill-opacity="0.45"/>
<rect x="83.5347" y="313.794" width="350" height="350" rx="12" transform="rotate(13.8081 83.5347 313.794)" fill="#77CE4D" fill-opacity="0.45"/>
<rect x="456" y="541.593" width="100" height="100" rx="12" transform="rotate(-8.51021 456 541.593)" fill="#45B678" fill-opacity="0.45"/>
<rect x="279" y="892.979" width="83" height="83" rx="12" transform="rotate(-23.4119 279 892.979)" fill="#45B678" fill-opacity="0.45"/>
<rect x="404.207" y="583.794" width="50" height="50" rx="12" transform="rotate(12.9524 404.207 583.794)" fill="#86C668" fill-opacity="0.45"/>
<rect x="404" y="830.211" width="200" height="200" rx="12" transform="rotate(-32.0766 404 830.211)" fill="#74C74D" fill-opacity="0.45"/>
<rect x="262.886" y="849" width="64.1549" height="64.1549" rx="12" transform="rotate(28.7784 262.886 849)" fill="#77CE4D" fill-opacity="0.45"/>
<rect x="584.183" y="849" width="200" height="200" rx="12" transform="rotate(6.36816 584.183 849)" fill="#C7FFAD" fill-opacity="0.45"/>
</svg>
