<svg width="375" height="643" viewBox="0 0 375 643" fill="none" xmlns="http://www.w3.org/2000/svg">
<rect width="150" height="150" rx="12" transform="matrix(-0.984209 -0.177011 -0.182806 0.983149 100.052 108.552)" fill="#C7FFAD" fill-opacity="0.45"/>
<rect width="75" height="75" rx="12" transform="matrix(-0.920054 -0.391793 -0.402933 0.91523 60.1494 429.385)" fill="#45B678" fill-opacity="0.45"/>
<rect width="45" height="45" rx="12" transform="matrix(-0.975359 0.220623 0.227711 0.973729 5.90234 471)" fill="#86C668" fill-opacity="0.45"/>
<rect width="80" height="80" rx="12" transform="matrix(-0.851279 -0.524714 -0.537408 0.843323 393.149 41.9771)" fill="#74C74D" fill-opacity="0.45"/>
<rect width="300" height="300" rx="12" transform="matrix(-0.972008 0.23495 0.242443 0.970166 416.417 417)" fill="#77CE4D" fill-opacity="0.45"/>
<rect width="200" height="200" rx="12" transform="matrix(-0.989179 0.146713 0.151567 0.988447 45.8359 160)" fill="#74C74D" fill-opacity="0.45"/>
<rect width="62.193" height="61.6401" rx="12" transform="matrix(-0.879833 0.475282 0.487595 0.87307 155.094 367)" fill="#77CE4D" fill-opacity="0.45"/>
<rect width="100" height="100" rx="12" transform="matrix(-0.955825 -0.293936 -0.290426 0.956898 311.123 395.988)" fill="#C7FFAD" fill-opacity="0.45"/>
<rect width="90" height="90" rx="12" transform="matrix(-0.915978 0.401229 0.396761 0.917922 337.441 50)" fill="#45B678" fill-opacity="0.45"/>
</svg>
