<svg width="1440" height="738" viewBox="0 0 1440 738" fill="none" xmlns="http://www.w3.org/2000/svg">
<rect x="480" y="112.799" width="100" height="100" rx="12" transform="rotate(-8.51021 480 112.799)" fill="#8CD792" fill-opacity="0.45"/>
<rect x="588.03" y="0.205994" width="200" height="200" rx="12" transform="rotate(8.57599 588.03 0.205994)" fill="#74C74D" fill-opacity="0.45"/>
<rect x="1281.95" y="460.165" width="200" height="200" rx="12" transform="rotate(-32.0766 1281.95 460.165)" fill="#74C74D" fill-opacity="0.45"/>
<rect x="1257.89" y="328" width="64.1549" height="64.1549" rx="12" transform="rotate(28.7784 1257.89 328)" fill="#77CE4D" fill-opacity="0.45"/>
<rect x="262.643" y="387.62" width="200" height="200" rx="12" transform="rotate(-10.3632 262.643 387.62)" fill="#C7FFAD" fill-opacity="0.45"/>
<rect x="1170.18" y="381" width="200" height="200" rx="12" transform="rotate(6.36816 1170.18 381)" fill="#C7FFAD" fill-opacity="0.45"/>
<rect x="58.5347" y="314" width="350" height="350" rx="12" transform="rotate(13.8081 58.5347 314)" fill="#77CE4D" fill-opacity="0.45"/>
<rect x="431" y="541.799" width="100" height="100" rx="12" transform="rotate(-8.51021 431 541.799)" fill="#45B678" fill-opacity="0.45"/>
<rect x="379.207" y="584" width="50" height="50" rx="12" transform="rotate(12.9524 379.207 584)" fill="#86C668" fill-opacity="0.45"/>
</svg>
