<svg width="168" height="41" viewBox="0 0 168 41" fill="none" xmlns="http://www.w3.org/2000/svg">
<path d="M25.014 12.783C25.005 14.464 24.564 15.311 24.014 15.374C23.656 15.415 23.244 15.122 22.869 14.514C21.6355 12.5283 20.3025 10.6062 18.875 8.755C18.8747 8.751 18.8747 8.74699 18.875 8.743C19.3738 5.74553 20.3745 2.85365 21.835 0.188995C23.8331 4.09233 24.9201 8.39797 25.014 12.782V12.783ZM17.903 12.682C19.242 13.869 19.609 14.817 19.31 15.334C19.11 15.673 18.625 15.834 17.91 15.749C15.5135 15.482 13.1043 15.3461 10.693 15.342L10.684 15.331C8.32753 12.6484 6.40926 9.61072 5.00001 6.33C9.74164 7.39903 14.1624 9.57652 17.9 12.684L17.903 12.682ZM13.329 18.826C15.119 18.453 16.096 18.76 16.316 19.345C16.46 19.729 16.281 20.245 15.774 20.789C14.112 22.6001 12.5481 24.4988 11.089 26.477H11.076C7.43364 26.7943 3.76405 26.5406 0.200012 25.725C3.94646 22.3846 8.45581 20.0153 13.332 18.825L13.329 18.826ZM15.376 26.4C16.158 24.752 16.993 24.133 17.569 24.306C17.946 24.419 18.223 24.871 18.325 25.597C18.6544 27.8841 19.1071 30.1517 19.681 32.39L19.673 32.4C17.7849 35.2111 15.5285 37.7565 12.964 39.968C12.6423 35.3159 13.4707 30.6562 15.376 26.4ZM22.152 29.1C21.452 27.593 21.508 26.57 21.98 26.217C22.29 25.986 22.78 26.029 23.357 26.364C25.1064 27.4105 26.9303 28.3269 28.814 29.106V29.117C29.54 31.9485 29.8433 34.8718 29.714 37.792C26.4563 35.627 23.8423 32.6241 22.147 29.099L22.152 29.1ZM28.114 25.385C26.671 25.069 25.981 24.429 26.025 23.847C26.054 23.465 26.39 23.098 26.98 22.839C28.8067 22.0591 30.5752 21.1494 32.272 20.117L32.281 20.122C34.5548 21.2228 36.6241 22.7034 38.4 24.5C35.1247 25.7492 31.5651 26.0568 28.124 25.388L28.114 25.385ZM29.3 18.386C28.157 19.375 27.278 19.542 26.893 19.141C26.7558 18.9312 26.6736 18.6902 26.654 18.4403C26.6345 18.1904 26.6781 17.9396 26.781 17.711C27.3781 15.6257 27.8684 13.5113 28.25 11.376H28.26C30.5047 10.2112 32.9285 9.43045 35.431 9.066C34.1917 12.633 32.0848 15.8357 29.3 18.386Z" fill="#146E38"/>
<path d="M21.833 0.189998C20.375 2.85478 19.3767 5.7463 18.88 8.743V8.755C18.5 8.266 17.995 7.677 17.56 7.14C15.9 5.1 14.076 3.2 12.226 1.325C15.2749 0.116719 18.5865 -0.274518 21.833 0.189998ZM0 16.157C2.829 15.814 5.671 15.502 8.487 15.407C9.214 15.383 10.039 15.346 10.687 15.345L10.678 15.334C8.32333 12.6505 6.40707 9.61211 5 6.331C2.48155 9.09775 0.754438 12.4915 0 16.156L0 16.157ZM5.574 35.3C6.9 32.9 8.306 30.523 9.84 28.282C10.247 27.687 10.705 27.003 11.09 26.476H11.077C7.43435 26.7939 3.76439 26.5405 0.2 25.725C1.09879 29.3414 2.95516 32.649 5.574 35.3ZM22.555 40.716C21.699 38.581 20.877 36.43 20.223 34.261C20.041 33.661 19.823 32.961 19.678 32.391L19.671 32.401C17.783 35.2116 15.5269 37.7566 12.963 39.968C16.0542 40.9809 19.3433 41.2371 22.554 40.715L22.555 40.716ZM35.79 31.382C33.9463 30.9395 32.1324 30.381 30.359 29.71C29.859 29.51 29.274 29.31 28.811 29.11V29.121C29.537 31.9521 29.8403 34.8751 29.711 37.795C32.1863 36.1338 34.2608 33.9425 35.784 31.38L35.79 31.382ZM38.251 15.855C36.7853 17.0718 35.2493 18.2015 33.651 19.238C33.202 19.523 32.693 19.867 32.268 20.121H32.277C34.5498 21.2223 36.6182 22.7032 38.393 24.5C38.8089 21.6292 38.7634 18.7104 38.258 15.854L38.251 15.855ZM29.127 2.843C28.992 5.088 28.827 7.343 28.521 9.536C28.438 10.136 28.344 10.827 28.249 11.374H28.259C30.5037 10.2095 32.9275 9.42901 35.43 9.065C33.821 6.54763 31.6682 4.42288 29.13 2.847" fill="#63C733"/>
<path d="M157.995 6.46799L154.073 33.877H149.083V30.814C146.611 33.153 144.042 34.337 141.439 34.337C140.675 34.3919 139.909 34.2769 139.195 34.0003C138.48 33.7236 137.836 33.2922 137.309 32.737C135.84 31.079 135.409 28.151 135.992 23.785C137.141 15.6 140.227 13.956 144.836 13.956C146.765 13.9666 148.691 14.1116 150.6 14.39L151.734 6.46399L157.995 6.46799ZM147.231 18.474C143.754 18.474 143.013 18.911 142.331 23.936C141.979 26.511 141.876 28.117 142.392 28.701C142.543 28.8354 142.723 28.9338 142.918 28.989C143.113 29.0443 143.318 29.0549 143.517 29.02C145.417 28.983 146.925 27.991 148.873 26.286L149.973 18.474H147.231ZM90.848 13.96C87.306 13.96 84.882 14.688 83.219 16.251C81.577 17.795 80.606 20.151 80.072 23.9C79.537 27.623 79.994 30.249 81.472 31.93C82.893 33.55 85.304 34.337 88.843 34.337C91.0743 34.3681 93.2976 34.0631 95.438 33.432L95.6 33.38L96.249 28.801L95.835 28.87C93.849 29.119 91.8484 29.2326 89.847 29.21C88.205 29.21 87.388 29.01 86.932 28.499C86.367 27.865 86.26 26.631 86.564 24.238C87.111 19.803 88.503 19.087 91.624 19.087C92.889 19.087 97.611 19.167 97.611 19.167L98.225 14.823C95.8211 14.185 93.3382 13.8944 90.852 13.96H90.848ZM133.321 16.112C134.272 17.198 134.591 18.719 134.297 20.766C133.688 24.891 130.764 25.916 126.244 26.233L120.87 26.633C121.015 28.869 122.192 29.287 124.409 29.287C126.838 29.2788 129.265 29.1413 131.68 28.875L131.98 28.798L132.015 29.106C132.172 30.2653 132.418 31.4107 132.751 32.532L132.822 32.765L132.596 32.86C129.753 33.8511 126.761 34.3509 123.75 34.338C120.14 34.338 117.657 33.528 116.159 31.861C114.633 30.161 114.109 27.511 114.559 23.755C115.459 16.432 118.313 13.961 125.878 13.961C129.617 13.961 132.052 14.661 133.322 16.113L133.321 16.112ZM125.349 22.37C127.173 22.225 128.02 21.87 128.233 20.16C128.28 19.9617 128.286 19.756 128.252 19.5551C128.218 19.3542 128.143 19.1624 128.033 18.991C127.748 18.684 127.076 18.622 126.083 18.622C125.9 18.622 125.704 18.6237 125.497 18.627C122.565 18.627 121.841 19.617 121.266 22.755L125.349 22.37ZM115.249 14.495H114.041C111.749 14.495 109.504 15.619 106.611 18.235V14.5H101.659L98.915 33.878H105.184L106.7 22.73C107.918 21.4608 109.563 20.6883 111.318 20.562H112.656L112.703 20.35C113.209 18.4345 113.983 16.6003 115.003 14.902L115.249 14.495ZM49.449 13.617C48.925 17.617 50.337 19.982 54.174 21.525L59.241 23.525C60.85 24.107 61.205 24.404 60.997 25.98C60.684 28.012 59.885 28.555 56.343 28.555H47.73L46.964 33.878H56.589C64.089 33.878 66.605 32.129 67.366 26.392C67.835 22.771 67.201 20.172 62.596 18.406L57.807 16.6C55.951 15.914 55.607 15.639 55.855 14.032C56.138 12.24 56.806 11.853 58.195 11.757H68.467L69.233 6.43399H60.065C53.825 6.43399 50.284 7.57899 49.444 13.621L49.449 13.617ZM69.28 33.881H75.509L78.249 14.5H72.021L69.28 33.881ZM78.638 11.756L79.39 6.42999H73.162L72.409 11.753L78.638 11.756ZM157.89 33.881H164.118L166.86 14.5H160.632L157.89 33.881ZM167.248 11.756L168 6.42999H161.772L161.019 11.753L167.248 11.756Z" fill="#63C733"/>
</svg>
