<svg width="273" height="37" viewBox="0 0 273 37" fill="none" xmlns="http://www.w3.org/2000/svg">
<path d="M26.5547 11.8594C24.8984 10.9375 23.4141 10.2891 22.1016 9.91406C20.7891 9.53906 19.4688 9.35156 18.1406 9.35156C17.0781 9.35156 16.2344 9.57813 15.6094 10.0312C15 10.4844 14.6953 11.0781 14.6953 11.8125C14.6953 12.5 14.9453 13.0938 15.4453 13.5938C15.9453 14.0938 17.0234 14.7969 18.6797 15.7031C21.3359 17.1094 23.1875 18.5625 24.2344 20.0625C25.2969 21.5469 25.8281 23.4375 25.8281 25.7344C25.8281 27.9062 25.2188 29.8438 24 31.5469C22.7969 33.25 21.125 34.5156 18.9844 35.3438C16.8594 36.1719 14.3359 36.5859 11.4141 36.5859C9.28906 36.5859 7.29688 36.3516 5.4375 35.8828C3.59375 35.3984 1.97656 34.7812 0.585938 34.0312L2.34375 25.7344C5.32812 27.9375 8.35156 29.0391 11.4141 29.0391C13.8516 29.0391 15.0703 28.1719 15.0703 26.4375C15.0703 25.6562 14.7656 25.0078 14.1562 24.4922C13.5625 23.9609 12.5078 23.3516 10.9922 22.6641C8.46094 21.4766 6.64844 20.1484 5.55469 18.6797C4.47656 17.1953 3.9375 15.3047 3.9375 13.0078C3.9375 10.8359 4.53125 8.875 5.71875 7.125C6.90625 5.35938 8.53125 4.03906 10.5938 3.16406C12.6562 2.27344 15.0469 1.82812 17.7656 1.82812C19.9219 1.82812 21.8516 2.02344 23.5547 2.41406C25.2734 2.80469 26.8281 3.25 28.2188 3.75L26.5547 11.8594ZM43.6875 5.27344C43.6875 6.75781 43.1406 7.96094 42.0469 8.88281C40.9688 9.80469 39.5469 10.2656 37.7812 10.2656C36.2188 10.2656 34.9453 9.85938 33.9609 9.04688C32.9766 8.21875 32.4844 7.1875 32.4844 5.95312C32.4844 4.45312 33.0312 3.24219 34.125 2.32031C35.2188 1.38281 36.6562 0.914062 38.4375 0.914062C39.9688 0.914062 41.2266 1.32031 42.2109 2.13281C43.1953 2.92969 43.6875 3.97656 43.6875 5.27344ZM36 36.5859C33.6562 36.5859 31.8047 35.9688 30.4453 34.7344C29.0859 33.5 28.4062 31.8594 28.4062 29.8125C28.4062 28.8125 28.5703 27.5938 28.8984 26.1562L31.9688 12H41.9531L39.0234 25.8281C38.8672 26.4844 38.7891 27.0938 38.7891 27.6562C38.7891 28.5469 39.3281 28.9922 40.4062 28.9922C41.2812 28.9922 42.1641 28.7969 43.0547 28.4062L41.5078 35.6719C41.0547 35.8906 40.3438 36.0938 39.375 36.2812C38.4062 36.4844 37.2812 36.5859 36 36.5859ZM86.625 17.3203C86.625 18.4922 86.4531 19.8516 86.1094 21.3984L83.0391 36H73.0547L75.8906 22.7109C76.1406 21.7109 76.2656 20.9062 76.2656 20.2969C76.2656 19.25 75.7344 18.7266 74.6719 18.7266C74.1562 18.7266 73.5547 18.9922 72.8672 19.5234C72.1953 20.0391 71.6016 20.7266 71.0859 21.5859C70.5703 22.4297 70.2188 23.2969 70.0312 24.1875L67.6172 36H57.5859L60.4219 22.7109C60.6875 21.6484 60.8203 20.8438 60.8203 20.2969C60.8203 19.25 60.2891 18.7266 59.2266 18.7266C58.3828 18.7266 57.4688 19.2891 56.4844 20.4141C55.5 21.5234 54.8594 22.7812 54.5625 24.1875L52.0781 36H42.0469L45.4453 20.0625C45.9922 17.4688 46.4609 14.7812 46.8516 12H56.6719C56.5625 13.875 56.4062 15.25 56.2031 16.125H56.2969C57.5781 14.6719 59.0469 13.5234 60.7031 12.6797C62.375 11.8359 63.9453 11.4141 65.4141 11.4141C68.9922 11.4141 70.8984 13.1797 71.1328 16.7109C72.3516 15.1016 73.8359 13.8203 75.5859 12.8672C77.3516 11.8984 79.1172 11.4141 80.8828 11.4141C84.7109 11.4141 86.625 13.3828 86.625 17.3203ZM113.578 36H103.453C103.562 34.1875 103.688 32.875 103.828 32.0625H103.734C102.328 33.5781 100.844 34.7109 99.2812 35.4609C97.7188 36.2109 96.1641 36.5859 94.6172 36.5859C90.7109 36.5859 88.7578 34.6172 88.7578 30.6797C88.7578 29.5078 88.9297 28.1484 89.2734 26.6016L92.3672 12H102.352L99.5625 25.0078C99.2969 26.0703 99.1641 26.9531 99.1641 27.6562C99.1641 27.9688 99.2734 28.25 99.4922 28.5C99.7266 28.7344 100.086 28.8516 100.57 28.8516C101.711 28.8516 102.742 28.2734 103.664 27.1172C104.586 25.9453 105.219 24.5078 105.562 22.8047L107.812 12H117.797L114.586 27.0703C114.289 28.4766 114.047 30.0312 113.859 31.7344C113.672 33.4375 113.578 34.8594 113.578 36ZM126.375 36.5859C124.031 36.5859 122.18 35.9688 120.82 34.7344C119.461 33.5 118.781 31.8594 118.781 29.8125C118.781 28.8125 118.945 27.5938 119.273 26.1562L124.805 0.46875H134.789L129.398 25.8281C129.242 26.4844 129.164 27.0938 129.164 27.6562C129.164 28.5469 129.703 28.9922 130.781 28.9922C131.656 28.9922 132.539 28.7969 133.43 28.4062L131.883 35.6719C131.43 35.8906 130.719 36.0938 129.75 36.2812C128.781 36.4844 127.656 36.5859 126.375 36.5859ZM158.859 36H148.969C148.969 35.5 149.086 34.0781 149.32 31.7344H149.227C146.852 34.9688 144.18 36.5859 141.211 36.5859C138.852 36.5859 137.023 35.7656 135.727 34.125C134.445 32.4844 133.805 30.1797 133.805 27.2109C133.805 25.0859 134.211 22.9922 135.023 20.9297C135.852 18.8672 136.984 17.1484 138.422 15.7734C139.875 14.3984 141.648 13.3281 143.742 12.5625C145.852 11.7969 148.281 11.4141 151.031 11.4141C154.797 11.4141 158.75 11.8984 162.891 12.8672L159.773 27.5625C159.523 28.6719 159.305 30.0781 159.117 31.7812C158.945 33.4844 158.859 34.8906 158.859 36ZM151.898 17.9062C151.523 17.8125 151.047 17.7656 150.469 17.7656C149.219 17.7656 148.094 18.125 147.094 18.8438C146.094 19.5625 145.281 20.6406 144.656 22.0781C144.047 23.5156 143.742 24.9531 143.742 26.3906C143.742 27.3281 143.945 28.0469 144.352 28.5469C144.758 29.0312 145.258 29.2734 145.852 29.2734C146.977 29.2734 147.984 28.6406 148.875 27.375C149.766 26.0938 150.469 24.2656 150.984 21.8906L151.898 17.9062ZM193.266 12.2344C192.312 11.7813 191.266 11.3984 190.125 11.0859C188.984 10.7734 187.602 10.6172 185.977 10.6172C183.852 10.6172 182.008 11.0781 180.445 12C178.898 12.9062 177.703 14.1797 176.859 15.8203C176.031 17.4453 175.617 19.2578 175.617 21.2578C175.617 23.3516 176.25 24.9922 177.516 26.1797C178.781 27.3516 180.609 27.9375 183 27.9375C184.062 27.9375 185.25 27.7656 186.562 27.4219C187.875 27.0781 189.148 26.6094 190.383 26.0156L188.367 35.2734C185.93 36.1484 183.242 36.5859 180.305 36.5859C175.367 36.5859 171.555 35.3125 168.867 32.7656C166.195 30.2188 164.859 26.6875 164.859 22.1719C164.859 18.125 165.773 14.5234 167.602 11.3672C169.43 8.19531 171.984 5.8125 175.266 4.21875C178.562 2.625 182.422 1.82812 186.844 1.82812C188.266 1.82812 189.766 1.94531 191.344 2.17969C192.922 2.39844 194.25 2.66406 195.328 2.97656L193.266 12.2344ZM213.844 20.5547H213.797C213.016 20.1641 212.164 19.9688 211.242 19.9688C209.617 19.9688 208.297 20.4375 207.281 21.375C206.281 22.3125 205.523 23.9219 205.008 26.2031L202.945 36H192.961L196.219 20.6953C196.984 17.1328 197.484 14.2344 197.719 12H207.539C207.367 13.5156 207.164 15.0547 206.93 16.6172H207.023C207.945 14.8359 208.938 13.5234 210 12.6797C211.078 11.8359 212.328 11.4141 213.75 11.4141C214.344 11.4141 215.047 11.5156 215.859 11.7188L213.844 20.5547ZM239.859 18.5859C239.859 21.3359 238.594 23.3828 236.062 24.7266C233.547 26.0703 229.664 26.8203 224.414 26.9766V27.1641C224.414 28.0703 224.797 28.7812 225.562 29.2969C226.328 29.7969 227.352 30.0469 228.633 30.0469C229.773 30.0469 231.141 29.8516 232.734 29.4609C234.344 29.0703 235.664 28.6094 236.695 28.0781L235.312 34.6172C234.094 35.1953 232.609 35.6641 230.859 36.0234C229.125 36.3984 227.391 36.5859 225.656 36.5859C222.297 36.5859 219.656 35.6953 217.734 33.9141C215.812 32.1328 214.852 29.6953 214.852 26.6016C214.852 23.7891 215.508 21.1953 216.82 18.8203C218.148 16.4453 219.969 14.6172 222.281 13.3359C224.609 12.0547 227.289 11.4141 230.32 11.4141C233.352 11.4141 235.695 12.0312 237.352 13.2656C239.023 14.5 239.859 16.2734 239.859 18.5859ZM230.648 18.5391C230.648 18.1953 230.539 17.8828 230.32 17.6016C230.117 17.3203 229.75 17.1797 229.219 17.1797C228.172 17.1797 227.266 17.5781 226.5 18.375C225.75 19.1719 225.242 20.2969 224.977 21.75C226.742 21.75 228.125 21.4844 229.125 20.9531C230.141 20.4219 230.648 19.6172 230.648 18.5391ZM265.922 36H256.031C256.031 35.5 256.148 34.0781 256.383 31.7344H256.289C253.961 34.9688 251.289 36.5859 248.273 36.5859C245.945 36.5859 244.125 35.7734 242.812 34.1484C241.516 32.5234 240.867 30.2578 240.867 27.3516C240.867 24.2422 241.555 21.4766 242.93 19.0547C244.32 16.6172 246.266 14.7344 248.766 13.4062C251.281 12.0781 254.086 11.4141 257.18 11.4141C257.398 11.4141 257.938 11.4375 258.797 11.4844C259.672 11.5312 260.141 11.5781 260.203 11.625L262.617 0.46875H272.555L266.836 27.5625C266.586 28.6719 266.367 30.0781 266.18 31.7812C266.008 33.4844 265.922 34.8906 265.922 36ZM258.961 17.9062C258.398 17.8125 257.906 17.7656 257.484 17.7656C256.234 17.7656 255.117 18.125 254.133 18.8438C253.148 19.5625 252.344 20.6562 251.719 22.125C251.109 23.5781 250.805 25 250.805 26.3906C250.805 27.3281 251.016 28.0469 251.438 28.5469C251.859 29.0312 252.367 29.2734 252.961 29.2734C254.039 29.2734 255.016 28.6484 255.891 27.3984C256.781 26.1328 257.5 24.2969 258.047 21.8906L258.961 17.9062Z" fill="#00823B"/>
</svg>
